<svg width="94" height="144" viewBox="0 0 94 144" fill="none" xmlns="http://www.w3.org/2000/svg">
<g id="Cat Image">
<path id="Vector" d="M88.3277 32.4142C85.8425 31.8077 83.3188 31.332 80.7951 30.8824C79.5001 30.6523 78.8389 30.255 78.5689 28.812C77.9628 25.5602 77.2079 22.3031 76.0893 19.1819C74.078 13.5826 71.7692 8.07742 69.543 2.5461C68.9975 1.20771 68.1434 0.00524538 66.4076 1.72847e-05C64.6884 -0.00521081 63.8509 1.17634 63.2062 2.49382C62.9747 2.96957 62.7819 3.45579 62.578 3.942C59.5418 11.345 57.3267 18.9832 55.657 26.7574C55.3099 28.3833 54.6762 28.9114 52.9074 28.6918C49.0887 28.216 45.2481 27.8187 41.4019 27.6566C39.5559 27.5782 38.9222 26.9822 38.5861 25.3145C37.3408 19.161 35.9522 13.0284 34.5305 6.90633C34.1393 5.21766 33.5276 3.56035 32.8719 1.94487C32.4256 0.841741 31.5384 0.0313859 30.1829 0.00524538C28.7943 -0.0208951 27.9732 0.8156 27.4993 1.91873C26.8767 3.36691 26.3091 4.84123 25.8352 6.3417C23.8846 12.5213 22.3307 18.795 21.0523 25.121C20.6831 26.9404 19.8786 27.7037 17.9665 27.573C15.6797 27.4161 13.3874 27.343 11.0952 27.2279C6.3618 26.9927 4.72524 28.2265 4.08053 32.6495C3.84359 34.2859 3.72788 35.9432 3.61216 37.5952C2.60377 51.6065 3.13827 65.6335 3.16582 79.6553C3.16582 80.7845 3.32562 81.9138 3.41379 83.0431C3.55155 84.7997 4.28993 86.0649 5.99812 87.0426C8.07551 88.2293 9.67901 90.0905 10.0923 92.4014C11.2274 98.7692 8.33449 104.829 2.32826 106.632C0.553937 107.165 -0.145872 108.31 0.0249472 110.01C0.118622 110.961 0.212298 111.918 0.305973 112.869C0.939659 122.081 2.07478 131.246 3.22644 140.411C3.62869 143.605 4.10809 144.071 7.5906 143.992C12.1752 143.893 16.7873 143.893 21.3333 143.417C40.8012 141.389 60.3573 141.263 79.8914 140.594C83.9966 140.453 85.3741 139.287 85.2309 135.366C84.9829 128.496 84.6909 121.632 84.3051 114.767C83.9911 109.231 83.9194 109.236 78.3595 107.589C74.4802 106.439 71.6204 102.12 72.0061 97.9954C72.4139 93.6875 75.3564 90.7963 79.9244 90.4094C81.9853 90.2317 83.2361 89.3325 83.429 87.4085C84.4429 77.4804 87.5562 67.96 89.6832 58.2514C91.0057 52.2025 92.8406 46.253 93.8049 40.1309C94.5543 35.3733 93.2318 33.601 88.3166 32.4037L88.3277 32.4142Z" fill="#33141B"/>
<path id="Vector_2" d="M35.676 87.7454C35.2683 82.6584 37.8361 79.4588 41.3957 77.1741C49.2645 72.1238 57.1607 73.6295 65.0846 77.1166C65.6356 77.3571 66.1646 76.7088 65.7568 76.2801C65.1066 75.59 64.2139 75.1822 63.3709 74.7797C57.1607 71.8206 50.6751 71.9199 44.4264 74.2412C39.5222 76.0606 35.5879 79.2968 34.5023 84.6033C34.034 86.8879 34.1497 89.2615 36.4916 90.7045C38.883 92.1788 41.5776 92.0272 43.7542 90.4744C49.7604 86.1822 56.1468 86.4122 62.8088 88.5191C63.2331 88.655 63.6629 88.8851 64.236 88.6184C64.5997 88.4459 64.5942 87.9492 64.2195 87.8029C56.224 84.7026 48.7796 85.3247 41.247 90.3542C41.8256 87.0814 45.5891 83.7197 44.9554 82.9878C44.3768 82.3186 42.3766 84.3994 40.5086 87.6931C39.9686 88.6446 40.1504 90.9554 38.1116 90.0823C35.9571 89.1622 37.4118 87.4003 38.1502 86.2919C38.7177 85.4398 39.368 84.5301 40.0071 83.7981C40.6849 83.0192 42.575 81.3671 42.1231 80.9697C41.6713 80.5724 39.7647 81.8951 35.6871 87.7454H35.676Z" fill="white"/>
<path id="Vector_3" d="M63.697 55.8413C67.9068 55.8674 75.3623 49.3166 75.737 45.2544C75.8141 44.444 75.7921 43.6128 74.7837 43.3252C73.8029 43.0481 73.1968 43.5866 72.9047 44.4179C72.3427 46.002 71.4941 47.4084 70.392 48.7206C68.4414 51.0471 66.1711 53.2325 62.909 52.8299C59.4871 52.4064 58.1316 49.6512 57.4813 46.6608C57.294 45.7981 56.7981 45.1655 55.7842 45.3537C54.875 45.521 54.8639 46.2948 54.8309 47.0163C54.638 51.089 59.3824 55.8204 63.697 55.8465V55.8413Z" fill="#FED44B"/>
<path id="Vector_4" d="M34.68 54.6189C39.1488 54.8855 43.5956 48.9464 44.1191 45.3809C44.2128 44.7378 43.9097 44.1784 43.2209 43.917C42.5046 43.6451 41.926 43.985 41.5403 44.4869C41.1711 44.9678 40.9452 45.5534 40.7082 46.1128C39.1543 49.83 36.6967 52.0676 34.2942 51.6546C30.6795 51.0377 29.9962 48.3086 29.649 45.4175C29.5499 44.5967 29.3515 43.7654 28.2604 43.8229C27.2741 43.8752 26.9821 44.6385 26.8443 45.475C26.1445 49.5738 30.3819 54.53 34.68 54.6137V54.6189Z" fill="#FED44B"/>
<path id="Vector_5" d="M45.3686 65.7127C42.7457 65.6552 41.0926 67.2707 41.1422 69.7175C41.1753 71.5264 41.9412 73.0321 44.0241 73.283C46.4707 73.581 50.8899 70.0259 50.5097 67.8929C49.9642 64.8031 46.8564 66.5492 45.3686 65.7075V65.7127Z" fill="#FFC1C4"/>
<path id="Vector_6" d="M47.3418 56.3854C45.6722 56.5788 43.5397 55.9776 43.3083 58.4662C43.1815 59.8725 45.4683 62.4657 46.6971 62.5127C47.8488 62.5546 50.896 59.2556 50.7307 57.9852C50.4552 55.9096 48.7139 56.4272 47.3418 56.3854Z" fill="#FFC1C4"/>
</g>
</svg>
