<svg width="100" height="100" viewBox="0 0 100 100" fill="none" xmlns="http://www.w3.org/2000/svg">
<g id="mingcute:celebrate-fill">
<path id="Vector" fill-rule="evenodd" clip-rule="evenodd" d="M34.0456 30.5959L33.6498 30.2501L33.2206 29.9542C32.6947 29.6437 32.107 29.4526 31.4991 29.3944C30.8912 29.3363 30.2779 29.4124 29.7026 29.6176C29.1274 29.8227 28.6043 30.1518 28.1703 30.5815C27.7364 31.0112 27.4022 31.531 27.1915 32.1042L11.2498 75.3751L11.0414 75.9834C8.57062 84.1042 16.4914 91.7501 24.6248 88.7501L67.8956 72.8042L68.379 72.5959C68.9603 72.2941 69.4624 71.8595 69.8443 71.3273C70.2262 70.7951 70.4773 70.1804 70.5772 69.533C70.677 68.8856 70.6228 68.2238 70.419 67.6012C70.2151 66.9787 69.8674 66.413 69.404 65.9501L34.0456 30.5959Z" fill="#A277FF"/>
<path id="Vector_2" fill-rule="evenodd" clip-rule="evenodd" d="M84.8037 52.0668C80.2787 49.3501 75.0745 48.5501 71.2787 48.3501V48.346C68.9825 48.1981 66.6773 48.272 64.3953 48.5668C63.3123 48.7345 62.3389 49.3221 61.6861 50.2024C61.0333 51.0827 60.7536 52.1848 60.9076 53.2699C61.0616 54.3549 61.6369 55.3356 62.5088 55.9995C63.3808 56.6634 64.4792 56.9571 65.5662 56.8168L66.8828 56.6876C68.2007 56.6002 69.5227 56.5947 70.8412 56.671C74.0412 56.8376 77.6745 57.5043 80.5162 59.2126L80.9495 59.4418C81.9198 59.8844 83.0228 59.9381 84.0315 59.5919C85.0401 59.2457 85.8777 58.5259 86.3716 57.5808C86.8655 56.6356 86.9783 55.5371 86.6866 54.5113C86.3949 53.4855 85.721 52.6106 84.8037 52.0668Z" fill="#FF6F0F"/>
<path id="Vector_3" fill-rule="evenodd" clip-rule="evenodd" d="M82.5702 37.8763C81.7987 37.1469 80.778 36.7395 79.7163 36.7373H76.7663L76.283 36.7665C75.2288 36.8918 74.2622 37.4149 73.5806 38.2289C72.899 39.0428 72.5538 40.0862 72.6154 41.1461C72.6771 42.2059 73.1411 43.2023 73.9125 43.9316C74.6839 44.661 75.7047 45.0684 76.7663 45.0706H79.7163L80.1997 45.0415C81.2539 44.9161 82.2205 44.393 82.9021 43.5791C83.5837 42.7651 83.9289 41.7217 83.8672 40.6619C83.8055 39.602 83.3416 38.6057 82.5702 37.8763Z" fill="#F5F378"/>
<path id="Vector_4" fill-rule="evenodd" clip-rule="evenodd" d="M79.4613 24.7083C79.4613 23.6034 79.0225 22.5438 78.2414 21.7624C77.46 20.9813 76.4004 20.5425 75.2955 20.5425C74.1907 20.5425 73.1311 20.9813 72.3497 21.7624L69.4039 24.7083C69.0059 25.0926 68.6885 25.5524 68.4701 26.0607C68.2517 26.5691 68.1368 27.1158 68.132 27.6691C68.1272 28.2223 68.2326 28.771 68.4421 29.2831C68.6516 29.7951 68.961 30.2603 69.3522 30.6516C69.7434 31.0428 70.2087 31.3522 70.7207 31.5617C71.2328 31.7712 71.7815 31.8766 72.3347 31.8718C72.888 31.867 73.4347 31.7521 73.9431 31.5337C74.4514 31.3153 74.9112 30.9979 75.2955 30.5999L78.2414 27.6541C79.0225 26.8727 79.4613 25.8131 79.4613 24.7083Z" fill="#B68BFF"/>
<path id="Vector_5" fill-rule="evenodd" clip-rule="evenodd" d="M67.6705 36.2263C67.6068 35.2136 67.1759 34.2591 66.4585 33.5416C66.0715 33.1542 65.612 32.851 65.1061 32.6413C64.6003 32.4317 64.0581 32.3237 63.5106 32.3237C62.963 32.3237 62.4208 32.4317 61.915 32.6413C61.4091 32.851 60.9496 33.1584 60.5626 33.5458L56.146 37.9624L55.8001 38.3541C55.1526 39.1916 54.8481 40.2441 54.9485 41.2979C55.0489 42.3518 55.5466 43.3279 56.3406 44.0281C57.1347 44.7282 58.1654 45.0999 59.2235 45.0675C60.2817 45.0352 61.2878 44.6014 62.0376 43.8541L66.4585 39.4333L66.8043 39.0416C67.4262 38.2399 67.7342 37.2389 67.6705 36.2263Z" fill="#8247FF"/>
<path id="Vector_6" d="M55.6791 11.6044C57.5457 17.2127 56.5457 23.3544 55.3791 27.646C54.6779 30.3217 53.7149 32.9217 52.5041 35.4085C52.0107 36.3976 51.1446 37.1501 50.0963 37.5006C49.0481 37.851 47.9035 37.7707 46.9145 37.2773C45.9254 36.7839 45.1729 35.9178 44.8225 34.8695C44.472 33.8213 44.5523 32.6768 45.0457 31.6877C46.0119 29.69 46.7795 27.6022 47.3374 25.4544C48.2832 21.9877 48.7582 18.2252 48.0291 15.1419L47.7749 14.2419C47.5933 13.7208 47.517 13.1688 47.5505 12.618C47.584 12.0672 47.7265 11.5286 47.9699 11.0333C48.2132 10.538 48.5525 10.096 48.9681 9.73297C49.3837 9.36991 49.8672 9.093 50.3906 8.91834C50.9141 8.74367 51.467 8.67472 52.0173 8.71549C52.5676 8.75625 53.1044 8.90593 53.5964 9.15582C54.0884 9.40571 54.5258 9.75083 54.8834 10.1712C55.2409 10.5915 55.5113 11.0787 55.6791 11.6044Z" fill="#F5F378"/>
</g>
</svg>
