<svg width="167" height="167" viewBox="0 0 167 167" fill="none" xmlns="http://www.w3.org/2000/svg">
<g clip-path="url(#clip0_1059_6312)">
<path fill-rule="evenodd" clip-rule="evenodd" d="M51.7382 60.5167C44.1508 68.1041 44.1508 80.4055 51.7382 87.9929L55.7787 92.0334L55.7786 92.0335L83.2548 119.51L83.2549 119.51L83.2549 119.51L110.731 92.0335L110.731 92.0334L114.772 87.9929C122.359 80.4056 122.359 68.1041 114.772 60.5167C107.184 52.9294 94.8827 52.9294 87.2954 60.5167L83.2549 64.5573L79.2143 60.5167C71.627 52.9294 59.3255 52.9294 51.7382 60.5167Z" fill="#B68BFF"/>
<rect width="167" height="167" fill="#B68BFF" fill-opacity="0.5"/>
</g>
<path d="M12 2.5H155C160.247 2.5 164.5 6.75329 164.5 12V155C164.5 160.247 160.247 164.5 155 164.5H12C6.75329 164.5 2.5 160.247 2.5 155V12C2.5 6.75329 6.75329 2.5 12 2.5Z" stroke="#8247FF" stroke-width="5"/>
<defs>
<clipPath id="clip0_1059_6312">
<path d="M0 12C0 5.37258 5.37258 0 12 0H155C161.627 0 167 5.37258 167 12V155C167 161.627 161.627 167 155 167H12C5.37258 167 0 161.627 0 155V12Z" fill="white"/>
</clipPath>
</defs>
</svg>
