<svg width="32" height="32" viewBox="0 0 32 32" fill="none" xmlns="http://www.w3.org/2000/svg">
<g id="Icon/Camera">
<circle id="Ellipse 26" cx="16" cy="16" r="15.2" fill="white" stroke="#E5E5EA" stroke-width="1.6"/>
<path id="Vector" d="M22.4167 11.1877H19.9375L19.3469 9.53245C19.3061 9.41919 19.2313 9.32129 19.1328 9.25212C19.0342 9.18295 18.9167 9.14589 18.7964 9.146H13.2036C12.9576 9.146 12.737 9.30094 12.6549 9.53245L12.0625 11.1877H9.58333C8.7776 11.1877 8.125 11.8403 8.125 12.646V20.9585C8.125 21.7642 8.7776 22.4168 9.58333 22.4168H22.4167C23.2224 22.4168 23.875 21.7642 23.875 20.9585V12.646C23.875 11.8403 23.2224 11.1877 22.4167 11.1877ZM22.5625 20.9585C22.5625 21.0387 22.4969 21.1043 22.4167 21.1043H9.58333C9.50312 21.1043 9.4375 21.0387 9.4375 20.9585V12.646C9.4375 12.5658 9.50312 12.5002 9.58333 12.5002H12.9867L13.2984 11.6288L13.7159 10.4585H18.2823L18.6997 11.6288L19.0115 12.5002H22.4167C22.4969 12.5002 22.5625 12.5658 22.5625 12.646V20.9585ZM16 13.6668C14.3885 13.6668 13.0833 14.972 13.0833 16.5835C13.0833 18.195 14.3885 19.5002 16 19.5002C17.6115 19.5002 18.9167 18.195 18.9167 16.5835C18.9167 14.972 17.6115 13.6668 16 13.6668ZM16 18.3335C15.0339 18.3335 14.25 17.5496 14.25 16.5835C14.25 15.6174 15.0339 14.8335 16 14.8335C16.9661 14.8335 17.75 15.6174 17.75 16.5835C17.75 17.5496 16.9661 18.3335 16 18.3335Z" fill="#8E8E93"/>
</g>
</svg>
