<svg width="100" height="100" viewBox="0 0 100 100" fill="none" xmlns="http://www.w3.org/2000/svg">
<circle cx="50" cy="50" r="50" fill="#F2F2F7"/>
<mask id="mask0_1052_1777" style="mask-type:alpha" maskUnits="userSpaceOnUse" x="0" y="0" width="100" height="100">
<circle cx="50" cy="50" r="50" fill="#D9D9D9"/>
</mask>
<g mask="url(#mask0_1052_1777)">
<path fill-rule="evenodd" clip-rule="evenodd" d="M49.9999 21.8665C49.1118 21.8665 48.2373 21.9246 47.3799 22.0373C43.7737 19.3294 38.2315 15.4818 36.67 16.1467C34.9337 16.8861 34.4314 25.1585 34.2869 29.5403C31.6495 32.9189 30.078 37.1702 30.078 41.7884C30.078 52.791 38.9974 61.7103 49.9999 61.7103C61.0025 61.7103 69.9218 52.791 69.9218 41.7884C69.9218 37.6582 68.6649 33.8215 66.5128 30.64C66.6518 26.5298 66.7059 18.1295 64.9304 16.4374C63.434 15.0127 57.8207 19.0667 53.889 22.2459C52.6312 21.997 51.3308 21.8665 49.9999 21.8665ZM12.5 87.2443C12.5 74.3514 37.4844 67.8565 50 67.8565C62.5156 67.8565 87.5 74.3514 87.5 87.2443V101.785H12.5V87.2443Z" fill="#FF95C9"/>
</g>
</svg>
