<svg width="51" height="50" viewBox="0 0 51 50" fill="none" xmlns="http://www.w3.org/2000/svg">
<path d="M32.1638 36.0371C30.8716 37.3036 29.4606 37.1036 28.1024 36.5037C26.6651 35.8904 25.3464 35.8638 23.83 36.5037C21.9311 37.3303 20.929 37.0903 19.7949 36.0371C13.3599 29.3313 14.3094 19.1192 21.6147 18.7459C23.3948 18.8393 24.6344 19.7325 25.6761 19.8125C27.2321 19.4925 28.7222 18.5726 30.3837 18.6926C32.3748 18.8526 33.8781 19.6525 34.8671 21.0923C30.7529 23.5853 31.7287 29.0646 35.5 30.5978C34.7484 32.5975 33.7726 34.5839 32.1506 36.0504L32.1638 36.0371ZM25.5442 18.666C25.3464 15.693 27.7332 13.24 30.476 13C30.8584 16.4396 27.3903 18.9992 25.5442 18.666Z" fill="white"/>
</svg>
