<svg width="50" height="50" viewBox="0 0 50 50" fill="none" xmlns="http://www.w3.org/2000/svg">
<path fill-rule="evenodd" clip-rule="evenodd" d="M34.14 25.2047C34.14 24.5665 34.0827 23.9529 33.9764 23.3638H25.5V26.8451H30.3436C30.135 27.9701 29.5009 28.9233 28.5477 29.5615V31.8197H31.4564C33.1582 30.2529 34.14 27.9456 34.14 25.2047Z" fill="#4285F4"/>
<path fill-rule="evenodd" clip-rule="evenodd" d="M25.5 34C27.93 34 29.9673 33.1941 31.4564 31.8195L28.5477 29.5613C27.7418 30.1013 26.7109 30.4204 25.5 30.4204C23.1559 30.4204 21.1718 28.8372 20.4641 26.71H17.4573V29.0418C18.9382 31.9831 21.9818 34 25.5 34Z" fill="#34A853"/>
<path fill-rule="evenodd" clip-rule="evenodd" d="M20.4641 26.7098C20.2841 26.1698 20.1818 25.593 20.1818 24.9998C20.1818 24.4066 20.2841 23.8298 20.4641 23.2898V20.958H17.4573C16.8477 22.173 16.5 23.5476 16.5 24.9998C16.5 26.4521 16.8477 27.8266 17.4573 29.0416L20.4641 26.7098Z" fill="#FBBC05"/>
<path fill-rule="evenodd" clip-rule="evenodd" d="M25.5 19.5795C26.8214 19.5795 28.0077 20.0336 28.9405 20.9255L31.5218 18.3441C29.9632 16.8918 27.9259 16 25.5 16C21.9818 16 18.9382 18.0168 17.4573 20.9582L20.4641 23.29C21.1718 21.1627 23.1559 19.5795 25.5 19.5795Z" fill="#EA4335"/>
</svg>
