<svg width="50" height="50" viewBox="0 0 50 50" fill="none" xmlns="http://www.w3.org/2000/svg">
<path d="M24.9032 14C18.3139 14 13 18.2511 13 23.412C13 26.7619 15.2106 29.6951 18.5265 31.3701L17.4042 35.5618C17.383 35.6246 17.3798 35.692 17.3948 35.7566C17.4098 35.8211 17.4425 35.8803 17.4892 35.9273C17.5573 35.9874 17.645 36.0206 17.7358 36.0208C17.8111 36.0148 17.8825 35.985 17.9398 35.9358L22.7691 32.6795C23.482 32.7779 24.2006 32.8289 24.9202 32.8325C31.5009 32.8325 36.8234 28.5814 36.8234 23.412C36.8234 18.2426 31.4839 14 24.9032 14Z" fill="black"/>
</svg>
