<svg width="20" height="20" viewBox="0 0 20 20" fill="none" xmlns="http://www.w3.org/2000/svg">
<g id="close-circle-line">
<path id="Vector" d="M1.6665 10C1.6665 14.6024 5.39746 18.3334 9.99984 18.3334C14.6022 18.3334 18.3332 14.6024 18.3332 10C18.3332 5.39765 14.6022 1.66669 9.99984 1.66669C5.39746 1.66669 1.6665 5.39765 1.6665 10Z" fill="#E8E7EA"/>
<path id="Vector_2" d="M9.99984 18.3334C5.39746 18.3334 1.6665 14.6024 1.6665 10C1.6665 5.39765 5.39746 1.66669 9.99984 1.66669C14.6022 1.66669 18.3332 5.39765 18.3332 10C18.3332 14.6024 14.6022 18.3334 9.99984 18.3334ZM9.99984 16.6667C13.6818 16.6667 16.6665 13.6819 16.6665 10C16.6665 6.31812 13.6818 3.33335 9.99984 3.33335C6.31794 3.33335 3.33317 6.31812 3.33317 10C3.33317 13.6819 6.31794 16.6667 9.99984 16.6667ZM9.99984 8.82152L12.3568 6.46449L13.5353 7.643L11.1783 10L13.5353 12.357L12.3568 13.5355L9.99984 11.1785L7.64281 13.5355L6.4643 12.357L8.82134 10L6.4643 7.643L7.64281 6.46449L9.99984 8.82152Z" fill="#C1BDC5"/>
</g>
</svg>
