<svg width="36" height="36" viewBox="0 0 36 36" fill="none" xmlns="http://www.w3.org/2000/svg">
<g id="image-fill">
<path id="Vector" d="M30 7.5H6V28.5L19.9384 14.5597C20.5242 13.9739 21.4739 13.9739 22.0597 14.5596L30 22.5156V7.5ZM3 5.9901C3 5.16714 3.68297 4.5 4.4877 4.5H31.5123C32.334 4.5 33 5.16743 33 5.9901V30.0099C33 30.8328 32.317 31.5 31.5123 31.5H4.4877C3.66608 31.5 3 30.8326 3 30.0099V5.9901ZM12 16.5C10.3431 16.5 9 15.1569 9 13.5C9 11.8431 10.3431 10.5 12 10.5C13.6569 10.5 15 11.8431 15 13.5C15 15.1569 13.6569 16.5 12 16.5Z" fill="#B68BFF"/>
</g>
</svg>
