<svg width="36" height="36" viewBox="0 0 36 36" fill="none" xmlns="http://www.w3.org/2000/svg">
<g id="notification-3-fill">
<path id="Vector" d="M30 25.5H31.5C32.3284 25.5 33 26.1716 33 27C33 27.8284 32.3284 28.5 31.5 28.5H4.5C3.67157 28.5 3 27.8284 3 27C3 26.1716 3.67157 25.5 4.5 25.5H6V15C6 8.37258 11.3726 3 18 3C24.6275 3 30 8.37258 30 15V25.5ZM13.5 33C13.5 32.1716 14.1716 31.5 15 31.5H21C21.8284 31.5 22.5 32.1716 22.5 33C22.5 33.8284 21.8284 34.5 21 34.5H15C14.1716 34.5 13.5 33.8284 13.5 33Z" fill="#A277FF"/>
</g>
</svg>
