<svg width="24" height="24" viewBox="0 0 24 24" fill="none" xmlns="http://www.w3.org/2000/svg">
<g id="Icon / search">
<path id="Vector (Stroke)" fill-rule="evenodd" clip-rule="evenodd" d="M7.55573 2.68492C8.64769 2.23261 9.81804 1.99982 11 1.99982C12.1819 1.99982 13.3522 2.23261 14.4442 2.68492C15.5361 3.13722 16.5283 3.80017 17.3641 4.63592C18.1998 5.47166 18.8628 6.46384 19.3151 7.55579C19.7674 8.64775 20.0002 9.8181 20.0002 11C20.0002 12.1819 19.7674 13.3523 19.3151 14.4443C18.9909 15.2269 18.5585 15.9583 18.0318 16.6176L21.7071 20.2929C22.0976 20.6834 22.0976 21.3166 21.7071 21.7071C21.3165 22.0977 20.6834 22.0977 20.2929 21.7071L16.6176 18.0319C15.0303 19.3 13.0512 20.0002 11 20.0002C8.61296 20.0002 6.32372 19.052 4.63585 17.3641C2.94799 15.6763 1.99976 13.387 1.99976 11C1.99976 8.61302 2.94799 6.32378 4.63585 4.63592C5.4716 3.80017 6.46378 3.13722 7.55573 2.68492ZM11 3.99982C10.0807 3.99982 9.1704 4.18088 8.3211 4.53268C7.47179 4.88447 6.7001 5.4001 6.05007 6.05013C4.73728 7.36292 3.99976 9.14345 3.99976 11C3.99976 12.8566 4.73728 14.6371 6.05007 15.9499C7.36286 17.2627 9.14339 18.0002 11 18.0002C12.8565 18.0002 14.6371 17.2627 15.9499 15.9499C16.5999 15.2999 17.1155 14.5282 17.4673 13.6789C17.8191 12.8296 18.0002 11.9193 18.0002 11C18.0002 10.0807 17.8191 9.17046 17.4673 8.32116C17.1155 7.47186 16.5999 6.70016 15.9499 6.05013C15.2998 5.4001 14.5281 4.88447 13.6788 4.53268C12.8295 4.18088 11.9192 3.99982 11 3.99982Z" fill="#2D2634"/>
</g>
</svg>
